# xmcd CD database file
#
# Track frame offsets:
#	182
#	42857
#	87180
#	112055
#	155602
#	200807
#	225080
#	247252
#	287172
#	310282
#
# Disc length: 4750 seconds
#
# Revision: 0
# Processed by: cddbd v1.5.2PL0 Copyright (c) Steve Scherf et al.
# Submitted via: CDex 1.51
#
DISCID=8a128c0a
DTITLE=Harry Allen Quartet - The King
DYEAR=1900
DGENRE=Jazz
TTITLE0='Deed I Do
TTITLE1=Close Your Eyes
TTITLE2=But Beautiful
TTITLE3=The King
TTITLE4=Did You Call Here Today
TTITLE5=Honeysuckle Rose
TTITLE6=Thie Time the Dream's On Me
TTITLE7=My Heart Stood Still
TTITLE8=Every Day I Have the Blues
TTITLE9=Limehouse Blues
EXTD=
EXTT0=
EXTT1=
EXTT2=
EXTT3=
EXTT4=
EXTT5=
EXTT6=
EXTT7=
EXTT8=
EXTT9=
PLAYORDER=
